<svg width="37" height="36" viewBox="0 0 37 36" fill="none" xmlns="http://www.w3.org/2000/svg">
<g id="Atom/Social-Logo/Dribbble" clip-path="url(#clip0_4_2510)">
<path id="Subtract" fill-rule="evenodd" clip-rule="evenodd" d="M36.2466 18.179C36.2466 27.9797 28.3015 35.9248 18.5007 35.9248C8.69997 35.9248 0.754883 27.9797 0.754883 18.179C0.754883 8.3782 8.69997 0.433105 18.5007 0.433105C28.3015 0.433105 36.2466 8.3782 36.2466 18.179ZM28.6412 18.1649C28.6412 18.8507 28.5714 19.5355 28.4343 20.2031C28.3006 20.8548 28.1025 21.4946 27.843 22.1062C27.5895 22.707 27.2751 23.286 26.9077 23.8259C26.5457 24.3624 26.1288 24.8658 25.6708 25.3246C25.2117 25.7815 24.7067 26.1973 24.1704 26.5607C23.6287 26.9256 23.0489 27.2396 22.4477 27.4943C21.8352 27.7524 21.1939 27.9501 20.5428 28.0836C19.8744 28.2211 19.1871 28.2913 18.5003 28.2913C17.813 28.2913 17.1257 28.2211 16.4582 28.0836C15.8061 27.9501 15.1649 27.7524 14.5528 27.4943C13.9517 27.2396 13.3713 26.9256 12.8296 26.5607C12.2934 26.1973 11.7883 25.7815 11.3303 25.3246C10.8718 24.8658 10.4548 24.3624 10.0924 23.8259C9.72692 23.286 9.41198 22.707 9.15748 22.1062C8.89798 21.4946 8.69945 20.8547 8.56525 20.2031C8.42959 19.5355 8.36025 18.8507 8.36025 18.1649C8.36025 17.4786 8.42955 16.7923 8.56529 16.1262C8.69949 15.4745 8.89802 14.8337 9.15752 14.2231C9.41202 13.6219 9.72696 13.0424 10.0924 12.5024C10.4549 11.9655 10.8718 11.4631 11.3303 11.0037C11.7884 10.5468 12.2934 10.132 12.8297 9.76908C13.3714 9.40266 13.9517 9.08873 14.5529 8.83356C15.1649 8.57491 15.8061 8.37667 16.4583 8.24417C17.1257 8.10771 17.813 8.03847 18.5003 8.03847C19.1871 8.03847 19.8744 8.10771 20.5429 8.24417C21.194 8.37671 21.8352 8.57495 22.4478 8.83356C23.0489 9.08869 23.6287 9.40266 24.1704 9.76908C24.7067 10.132 25.2118 10.5468 25.6708 11.0037C26.1288 11.4631 26.5458 11.9655 26.9077 12.5024C27.2751 13.0424 27.5895 13.6219 27.843 14.2231C28.1025 14.8337 28.3006 15.4745 28.4343 16.1262C28.5714 16.7923 28.6412 17.4786 28.6412 18.1649ZM18.5005 9.51789C20.6931 9.51789 22.695 10.3322 24.2196 11.6747L24.2189 11.6758C24.178 11.737 22.9381 13.5913 19.6973 14.8045C18.257 12.1638 16.679 10.0533 16.4739 9.77902L16.4599 9.76017C17.114 9.60295 17.7968 9.51789 18.5005 9.51789ZM20.9392 17.347C20.7594 16.9252 20.5648 16.5055 20.3638 16.0931C23.761 14.7077 25.154 12.7204 25.1877 12.6722L25.1882 12.6715C26.4033 14.1444 27.1377 16.0259 27.1575 18.0758L27.1472 18.0737L27.1472 18.0737C26.9198 18.0264 24.0443 17.4284 21.1263 17.795C21.0654 17.6467 21.0031 17.4984 20.9392 17.347ZM23.3397 25.3364C25.2842 24.0261 26.6652 21.9455 27.0505 19.5355C26.8722 19.4781 24.4494 18.7122 21.6541 19.1597C22.7901 22.2768 23.2516 24.8153 23.3397 25.3364ZM20.0315 19.5602L20.0199 19.564L20.0105 19.5669C19.9982 19.5708 19.9861 19.5746 19.9741 19.579C14.8645 21.3577 13.1959 24.9423 13.1779 24.9814C14.6481 26.1231 16.4921 26.8119 18.5005 26.8119C19.6997 26.8119 20.8421 26.568 21.8814 26.1266C21.7532 25.371 21.2501 22.7227 20.0315 19.5602ZM9.84741 17.889C10.0009 17.8949 14.2797 17.9908 18.7386 16.6578C18.9867 17.1434 19.2239 17.6359 19.4413 18.1273C19.3274 18.1599 19.2125 18.1936 19.0996 18.2311C14.4262 19.7402 12.0563 23.9386 12.0593 23.9431C10.6798 22.4117 9.84046 20.3864 9.84046 18.1649C9.84046 18.1008 9.84258 18.0381 9.84471 17.9749L9.84471 17.9748L9.84471 17.9748L9.84471 17.9748V17.9747L9.84471 17.9747C9.84567 17.9463 9.84663 17.9178 9.84741 17.889ZM10.0261 16.3819C10.5882 13.7039 12.3906 11.4819 14.8055 10.3431C14.9209 10.4969 16.5223 12.667 18.0211 15.3262C13.907 16.4178 10.3305 16.3847 10.0345 16.382L10.0261 16.3819Z" fill="white"/>
</g>
<defs>
<clipPath id="clip0_4_2510">
<rect width="35.4917" height="35.4917" fill="white" transform="translate(0.754883 0.433105)"/>
</clipPath>
</defs>
</svg>
