<svg width="36" height="36" viewBox="0 0 36 36" fill="none" xmlns="http://www.w3.org/2000/svg">
<g id="Atom/Social-Logo/Instagram" clip-path="url(#clip0_4_2516)">
<path id="Subtract" fill-rule="evenodd" clip-rule="evenodd" d="M35.7378 18.179C35.7378 27.9797 27.7927 35.9248 17.992 35.9248C8.19118 35.9248 0.246094 27.9797 0.246094 18.179C0.246094 8.3782 8.19118 0.433105 17.992 0.433105C27.7927 0.433105 35.7378 8.3782 35.7378 18.179ZM13.8116 8.09974C14.8933 8.05052 15.2389 8.03847 17.9929 8.03847H17.9897C20.7446 8.03847 21.089 8.05052 22.1706 8.09974C23.2502 8.14917 23.9875 8.32009 24.6339 8.57085C25.3015 8.82965 25.8656 9.17612 26.4297 9.74019C26.9937 10.3038 27.3402 10.8696 27.6001 11.5366C27.8494 12.1813 28.0205 12.9182 28.0712 13.9978C28.1198 15.0794 28.1325 15.4251 28.1325 18.1791C28.1325 20.9331 28.1198 21.2779 28.0712 22.3595C28.0205 23.4387 27.8494 24.1758 27.6001 24.8207C27.3402 25.4875 26.9937 26.0532 26.4297 26.6169C25.8662 27.181 25.3013 27.5283 24.6346 27.7873C23.9894 28.0381 23.2517 28.209 22.1721 28.2584C21.0904 28.3076 20.7459 28.3197 17.9916 28.3197C15.2378 28.3197 14.8924 28.3076 13.8108 28.2584C12.7314 28.209 11.9943 28.0381 11.3491 27.7873C10.6826 27.5283 10.1168 27.181 9.5534 26.6169C8.98954 26.0532 8.64307 25.4875 8.38385 24.8205C8.1333 24.1758 7.96239 23.4389 7.91274 22.3593C7.86373 21.2777 7.85147 20.9331 7.85147 18.1791C7.85147 15.4251 7.86415 15.0792 7.91253 13.9976C7.96112 12.9184 8.13224 12.1813 8.38364 11.5363C8.6435 10.8696 8.98997 10.3038 9.55404 9.74019C10.1177 9.17633 10.6834 8.82986 11.3504 8.57085C11.9952 8.32009 12.7321 8.14917 13.8116 8.09974ZM17.6549 9.86579H17.6532H17.6532H17.6531H17.6531C17.4488 9.8657 17.2593 9.86562 17.0832 9.86589V9.86336C15.1933 9.86547 14.8307 9.87815 13.8953 9.9204C12.9066 9.96582 12.3697 10.1306 12.0123 10.27C11.5391 10.4543 11.201 10.674 10.8461 11.0289C10.4912 11.3838 10.2711 11.7218 10.0873 12.1951C9.94846 12.5525 9.78326 13.0891 9.73805 14.0778C9.68946 15.1468 9.67974 15.4662 9.67974 18.1742C9.67974 20.8822 9.68946 21.2033 9.73805 22.2723C9.78305 23.261 9.94846 23.7976 10.0873 24.1546C10.2715 24.6281 10.4912 24.9652 10.8461 25.3202C11.201 25.6751 11.5391 25.8948 12.0123 26.0786C12.37 26.2174 12.9066 26.3826 13.8953 26.4282C14.9643 26.4768 15.2852 26.4874 17.9929 26.4874C20.7005 26.4874 21.0216 26.4768 22.0906 26.4282C23.0793 26.383 23.6163 26.2182 23.9733 26.0788C24.4468 25.895 24.7837 25.6753 25.1387 25.3204C25.4936 24.9657 25.7137 24.6287 25.8975 24.1555C26.0363 23.7984 26.2015 23.2618 26.2467 22.2731C26.2953 21.2041 26.3059 20.883 26.3059 18.1767C26.3059 15.4705 26.2953 15.1494 26.2467 14.0804C26.2017 13.0917 26.0363 12.5551 25.8975 12.198C25.7133 11.7248 25.4936 11.3868 25.1387 11.0319C24.7839 10.6769 24.4466 10.4572 23.9733 10.2734C23.6159 10.1346 23.0793 9.96941 22.0906 9.9242C21.0214 9.87561 20.7005 9.86589 17.9929 9.86589L17.6549 9.86579ZM23.4059 11.5497C22.7341 11.5497 22.189 12.0941 22.189 12.7661C22.189 13.4379 22.7341 13.983 23.4059 13.983C24.0777 13.983 24.6228 13.4379 24.6228 12.7661C24.6228 12.0943 24.0777 11.5497 23.4059 11.5497ZM17.9929 12.9715C15.117 12.9715 12.7853 15.3032 12.7853 18.1791C12.7853 21.055 15.117 23.3856 17.9929 23.3856C20.8688 23.3856 23.1997 21.055 23.1997 18.1791C23.1997 15.3032 20.8688 12.9715 17.9929 12.9715ZM17.9929 14.7989C19.8596 14.7989 21.3731 16.3121 21.3731 18.1791C21.3731 20.0458 19.8596 21.5593 17.9929 21.5593C16.126 21.5593 14.6127 20.0458 14.6127 18.1791C14.6127 16.3121 16.126 14.7989 17.9929 14.7989Z" fill="white"/>
</g>
<defs>
<clipPath id="clip0_4_2516">
<rect width="35.4917" height="35.4917" fill="white" transform="translate(0.246094 0.433105)"/>
</clipPath>
</defs>
</svg>
