<svg width="36" height="36" viewBox="0 0 36 36" fill="none" xmlns="http://www.w3.org/2000/svg">
<g id="Atom/Social-Logo/Behance" clip-path="url(#clip0_4_2506)">
<path id="Subtract" fill-rule="evenodd" clip-rule="evenodd" d="M35.7544 18.179C35.7544 27.9797 27.8093 35.9248 18.0086 35.9248C8.20779 35.9248 0.262695 27.9797 0.262695 18.179C0.262695 8.3782 8.20779 0.433105 18.0086 0.433105C27.8093 0.433105 35.7544 8.3782 35.7544 18.179ZM18.3812 15.0456C18.3812 14.3128 18.1892 13.6846 17.8065 13.1587C17.1685 12.3023 16.087 11.8635 14.5582 11.8412H8.50184V24.205H14.1492C14.786 24.205 15.3751 24.1509 15.92 24.0392C16.465 23.9262 16.936 23.7204 17.3354 23.418C17.6908 23.1545 17.9865 22.8298 18.2226 22.4451C18.5959 21.864 18.7819 21.2064 18.7819 20.4735C18.7819 19.763 18.6185 19.1583 18.2942 18.6619C17.9662 18.1643 17.4845 17.8008 16.8454 17.5702C17.2663 17.3584 17.5847 17.1231 17.8017 16.8667C18.1892 16.4079 18.3812 15.7997 18.3812 15.0456ZM11 16.7161V13.9881H13.7283C14.3281 13.9881 14.8218 14.0528 15.2105 14.181C15.6589 14.3669 15.883 14.7468 15.883 15.3244C15.883 15.8421 15.7125 16.2044 15.3739 16.4091C15.0328 16.6138 14.5904 16.7161 14.0479 16.7161H11ZM11 18.7619V22.0593H14.0431C14.5869 22.0593 15.0114 21.9864 15.3131 21.8417C15.8628 21.5711 16.137 21.0582 16.137 20.2982C16.137 19.6536 15.8723 19.2124 15.3393 18.9713C15.0412 18.8372 14.6226 18.7666 14.086 18.7619H11ZM21.4613 13.9563H26.832V12.4176H21.4613V13.9563ZM27.9589 16.6008C27.5392 15.9844 27.0061 15.5327 26.3586 15.248C25.7123 14.9621 24.9861 14.8186 24.1789 14.8186C22.8207 14.8186 21.7177 15.2433 20.8651 16.0867C20.0149 16.9326 19.5892 18.1478 19.5892 19.7324C19.5892 21.4217 20.059 22.6428 21.0046 23.3921C21.9454 24.1427 23.0341 24.5168 24.2683 24.5168C25.7624 24.5168 26.925 24.0721 27.755 23.1839C28.2868 22.624 28.5873 22.0722 28.6529 21.5311H26.1786C26.0355 21.7993 25.8685 22.0087 25.6789 22.1605C25.3343 22.4393 24.8848 22.5792 24.3351 22.5792C23.8128 22.5792 23.368 22.464 22.9983 22.2346C22.3878 21.8664 22.0682 21.2229 22.0277 20.3065H28.7805C28.7912 19.5171 28.765 18.9101 28.6994 18.4913C28.5873 17.7749 28.3417 17.1443 27.9589 16.6008ZM22.0873 18.7289C22.1756 18.1337 22.3914 17.6619 22.7336 17.3137C23.0758 16.9655 23.56 16.7914 24.18 16.7914C24.7524 16.7914 25.2306 16.9549 25.6193 17.2831C26.0033 17.6137 26.2203 18.0937 26.2644 18.7289H22.0873Z" fill="white"/>
</g>
<defs>
<clipPath id="clip0_4_2506">
<rect width="35.4917" height="35.4917" fill="white" transform="translate(0.262695 0.433105)"/>
</clipPath>
</defs>
</svg>
