<svg width="116" height="117" viewBox="0 0 116 117" fill="none" xmlns="http://www.w3.org/2000/svg">
<g id="Atom/Complex-Icon/1 - 4" clip-path="url(#clip0_4_2344)">
<path id="Shape" opacity="0.1" d="M92.6942 7.80756V86.7903C92.6942 90.7251 89.5552 93.9445 85.7188 93.9445H6.97544C3.13895 93.9445 0 90.7251 0 86.7903V7.80756C0 3.87273 3.13895 0.65332 6.97544 0.65332H85.7188C89.5552 0.65332 92.6942 3.87273 92.6942 7.80756Z" fill="#708CF0"/>
<path id="Shape_2" fill-rule="evenodd" clip-rule="evenodd" d="M14.0049 25.7468C14.0049 19.1649 19.2132 13.8231 25.6306 13.8231H104.374C110.791 13.8231 116 19.1649 116 25.7468V104.73C116 111.312 110.791 116.653 104.374 116.653H25.6306C19.2132 116.653 14.0049 111.312 14.0049 104.73V25.7468ZM111.349 104.73V25.7473C111.349 21.8124 108.211 18.593 104.374 18.593H25.6307C21.7942 18.593 18.6553 21.8124 18.6553 25.7473V104.73C18.6553 108.665 21.7942 111.884 25.6307 111.884H104.374C108.211 111.884 111.349 108.665 111.349 104.73Z" fill="#708CF0"/>
<path id="Icon color" fill-rule="evenodd" clip-rule="evenodd" d="M52.8998 76.3288C56.7546 73.4794 62.1035 73.9531 65.4081 77.4365L89.2731 53.3418C89.4972 53.1069 89.8076 52.9764 90.1305 52.9811H90.8212C91.4789 52.9811 92.0121 53.5194 92.0121 54.1834V57.7904C92.0104 59.703 91.2565 61.5367 89.9162 62.8883L78.0075 74.9116L80.5083 77.4365C83.8128 73.9531 89.1618 73.4794 93.0165 76.3288C96.8712 79.1782 98.0396 84.4694 95.7488 88.7021C93.4579 92.9348 88.4162 94.7999 83.959 93.0635C79.5019 91.3272 77.0077 86.5264 78.1266 81.8371H75.7448C75.12 81.8344 74.5212 81.584 74.0776 81.1397L72.9582 80.0095L71.8388 81.1397C71.3951 81.584 70.7964 81.8344 70.1715 81.8371H67.7898C68.9086 86.5264 66.4145 91.3272 61.9573 93.0635C57.5002 94.7999 52.4585 92.9348 50.1676 88.7021C47.8767 84.4694 49.0451 79.1782 52.8998 76.3288ZM91.1803 86.927C92.4494 85.023 92.2092 82.479 90.6067 80.8513C89.7175 79.9482 88.5098 79.438 87.2485 79.4326C84.9754 79.4229 83.0123 81.0361 82.5601 83.2852C82.1079 85.5343 83.2927 87.7926 85.3896 88.6785C87.4865 89.5643 89.9113 88.8309 91.1803 86.927ZM55.3095 87.6322C53.9501 86.4569 53.358 84.6114 53.7765 82.8545C54.1951 81.0977 55.5538 79.726 57.2939 79.3034C59.034 78.8808 60.8618 79.4786 62.026 80.8511C63.3854 82.0264 63.9775 83.8719 63.5589 85.6287C63.1403 87.3856 61.7817 88.7573 60.0416 89.1799C58.3015 89.6025 56.4736 89.0047 55.3095 87.6322ZM55.7857 52.9811C56.1086 52.9764 56.4191 53.1069 56.6431 53.3418L70.0047 66.856L64.9554 71.9539L56.0001 62.8883C54.6597 61.5367 53.9058 59.703 53.9041 57.7904V54.1834C53.9041 53.5194 54.4373 52.9811 55.095 52.9811H55.7857Z" fill="#708CF0"/>
</g>
<defs>
<clipPath id="clip0_4_2344">
<rect width="116" height="116" fill="white" transform="translate(0 0.65332)"/>
</clipPath>
</defs>
</svg>
