<svg width="116" height="117" viewBox="0 0 116 117" fill="none" xmlns="http://www.w3.org/2000/svg">
<g id="Atom/Complex-Icon/1 - 3" clip-path="url(#clip0_4_2358)">
<path id="Shape" opacity="0.1" d="M92.6942 7.80756V86.7903C92.6942 90.7251 89.5552 93.9445 85.7188 93.9445H6.97544C3.13895 93.9445 0 90.7251 0 86.7903V7.80756C0 3.87273 3.13895 0.65332 6.97544 0.65332H85.7188C89.5552 0.65332 92.6942 3.87273 92.6942 7.80756Z" fill="#A66DF5"/>
<path id="Shape_2" fill-rule="evenodd" clip-rule="evenodd" d="M14.0049 25.7468C14.0049 19.1649 19.2132 13.8231 25.6306 13.8231H104.374C110.791 13.8231 116 19.1649 116 25.7468V104.73C116 111.312 110.791 116.653 104.374 116.653H25.6306C19.2132 116.653 14.0049 111.312 14.0049 104.73V25.7468ZM111.349 104.73V25.7473C111.349 21.8124 108.211 18.593 104.374 18.593H25.6307C21.7942 18.593 18.6553 21.8124 18.6553 25.7473V104.73C18.6553 108.665 21.7942 111.884 25.6307 111.884H104.374C108.211 111.884 111.349 108.665 111.349 104.73Z" fill="#A02E8E"/>
<path id="Icon color" fill-rule="evenodd" clip-rule="evenodd" d="M66.7153 40.6533H87.2867C91.5472 40.6533 95.001 44.1071 95.001 48.3676V89.5105C95.001 93.7709 91.5472 97.2247 87.2867 97.2247H66.7153C62.4548 97.2247 59.001 93.7709 59.001 89.5105V48.3676C59.001 44.1071 62.4548 40.6533 66.7153 40.6533ZM66.7153 92.0819H87.2867C88.7069 92.0819 89.8581 90.9306 89.8581 89.5105V48.3676C89.8581 46.9474 88.7069 45.7962 87.2867 45.7962C85.8665 45.7962 84.7153 46.9474 84.7153 48.3676C84.7153 49.7878 83.564 50.939 82.1438 50.939H71.8581C70.438 50.939 69.2867 49.7878 69.2867 48.3676C69.2867 46.9474 68.1354 45.7962 66.7153 45.7962C65.2951 45.7962 64.1438 46.9474 64.1438 48.3676V89.5105C64.1438 90.9306 65.2951 92.0819 66.7153 92.0819Z" fill="#A02E8E"/>
</g>
<defs>
<clipPath id="clip0_4_2358">
<rect width="116" height="116" fill="white" transform="translate(0 0.65332)"/>
</clipPath>
</defs>
</svg>
