<svg width="116" height="116" viewBox="0 0 116 116" fill="none" xmlns="http://www.w3.org/2000/svg">
<g id="Atom/Complex-Icon/1 - 2" clip-path="url(#clip0_4_2300)">
<path id="Shape" opacity="0.1" d="M92.6942 7.15424V86.137C92.6942 90.0718 89.5552 93.2912 85.7188 93.2912H6.97544C3.13895 93.2912 0 90.0718 0 86.137V7.15424C0 3.21941 3.13895 0 6.97544 0H85.7188C89.5552 0 92.6942 3.21941 92.6942 7.15424Z" fill="#FB6363"/>
<path id="Shape_2" fill-rule="evenodd" clip-rule="evenodd" d="M14.0049 25.0935C14.0049 18.5116 19.2132 13.1698 25.6306 13.1698H104.374C110.791 13.1698 116 18.5116 116 25.0935V104.076C116 110.658 110.791 116 104.374 116H25.6306C19.2132 116 14.0049 110.658 14.0049 104.076V25.0935ZM111.349 104.077V25.0939C111.349 21.1591 108.211 17.9397 104.374 17.9397H25.6307C21.7942 17.9397 18.6553 21.1591 18.6553 25.0939V104.077C18.6553 108.012 21.7942 111.231 25.6307 111.231H104.374C108.211 111.231 111.349 108.012 111.349 104.077Z" fill="#FB6363"/>
<path id="Icon color" fill-rule="evenodd" clip-rule="evenodd" d="M97 66.2995C97 63.719 94.9107 61.6271 92.3333 61.6271H84.05C84.8807 60.2098 85.3233 58.5981 85.3333 56.9548H92.3333C92.3333 54.3743 90.244 52.2825 87.6667 52.2825H84.05C82.3744 49.4232 79.3111 47.6667 76 47.6667C72.6889 47.6667 69.6256 49.4232 67.95 52.2825H62C58.134 52.2825 55 55.4203 55 59.291V89.6611C55 92.2415 57.0893 94.3334 59.6667 94.3334H92.3333C94.9107 94.3334 97 92.2415 97 89.6611V66.2995ZM76 52.2826C78.5773 52.2826 80.6667 54.3745 80.6667 56.9549C80.6667 59.5354 78.5773 61.6273 76 61.6273C73.4227 61.6273 71.3333 59.5354 71.3333 56.9549C71.3333 54.3745 73.4227 52.2826 76 52.2826ZM62 56.955C60.7113 56.955 59.6667 58.0009 59.6667 59.2911C59.6667 60.5813 60.7113 61.6273 62 61.6273H67.95C67.1193 60.2099 66.6767 58.5983 66.6667 56.955H62ZM92.3333 84.9887H76C74.7113 84.9887 73.6667 83.9427 73.6667 82.6525V73.3078C73.6667 72.0176 74.7113 70.9717 76 70.9717H92.3333V84.9887ZM79.5 80.3163C78.8557 80.3163 78.3333 79.7934 78.3333 79.1483V76.8121C78.3333 76.167 78.8557 75.644 79.5 75.644H81.8333C82.4777 75.644 83 76.167 83 76.8121V79.1483C83 79.7934 82.4777 80.3163 81.8333 80.3163H79.5Z" fill="#FB6363"/>
</g>
<defs>
<clipPath id="clip0_4_2300">
<rect width="116" height="116" fill="white"/>
</clipPath>
</defs>
</svg>
