<svg width="116" height="117" viewBox="0 0 116 117" fill="none" xmlns="http://www.w3.org/2000/svg">
<g id="Atom/Complex-Icon/1 - 5" clip-path="url(#clip0_4_2328)">
<path id="Shape" opacity="0.1" d="M92.6942 7.80756V86.7903C92.6942 90.7251 89.5552 93.9445 85.7188 93.9445H6.97544C3.13895 93.9445 0 90.7251 0 86.7903V7.80756C0 3.87273 3.13895 0.65332 6.97544 0.65332H85.7188C89.5552 0.65332 92.6942 3.87273 92.6942 7.80756Z" fill="#6DD6B0"/>
<path id="Shape_2" fill-rule="evenodd" clip-rule="evenodd" d="M14.0049 25.7468C14.0049 19.1649 19.2132 13.8231 25.6306 13.8231H104.374C110.791 13.8231 116 19.1649 116 25.7468V104.73C116 111.312 110.791 116.653 104.374 116.653H25.6306C19.2132 116.653 14.0049 111.312 14.0049 104.73V25.7468ZM111.349 104.73V25.7473C111.349 21.8124 108.211 18.593 104.374 18.593H25.6307C21.7942 18.593 18.6553 21.8124 18.6553 25.7473V104.73C18.6553 108.665 21.7942 111.884 25.6307 111.884H104.374C108.211 111.884 111.349 108.665 111.349 104.73Z" fill="#6DD6B0"/>
<path id="Icon color" fill-rule="evenodd" clip-rule="evenodd" d="M86.4023 78.0288H90.3398C95.414 78.0288 99.5273 82.1422 99.5273 87.2163C99.5273 92.2904 95.414 96.4038 90.3398 96.4038C85.2657 96.4038 81.1523 92.2904 81.1523 87.2163V83.2788H70.6523V87.2163C70.6523 92.2904 66.539 96.4038 61.4648 96.4038C56.3907 96.4038 52.2773 92.2904 52.2773 87.2163C52.2773 82.1422 56.3907 78.0288 61.4648 78.0288H65.4023V67.5288H61.4648C56.3907 67.5288 52.2773 63.4154 52.2773 58.3413C52.2773 53.2672 56.3907 49.1538 61.4648 49.1538C66.539 49.1538 70.6523 53.2672 70.6523 58.3413V62.2788H81.1523V58.3413C81.1523 53.2672 85.2657 49.1538 90.3398 49.1538C95.414 49.1538 99.5273 53.2672 99.5273 58.3413C99.5273 63.4154 95.414 67.5288 90.3398 67.5288H86.4023V78.0288ZM90.3398 54.4038C88.1652 54.4038 86.4023 56.1667 86.4023 58.3413V62.2788H90.3398C92.5145 62.2788 94.2773 60.5159 94.2773 58.3413C94.2773 56.1667 92.5145 54.4038 90.3398 54.4038ZM61.4648 62.2788C59.2902 62.2788 57.5273 60.5159 57.5273 58.3413C57.5273 56.1667 59.2902 54.4038 61.4648 54.4038C63.6395 54.4038 65.4023 56.1667 65.4023 58.3413V62.2788H61.4648ZM61.4648 91.1538C63.6395 91.1538 65.4023 89.3909 65.4023 87.2163V83.2788H61.4648C59.2902 83.2788 57.5273 85.0417 57.5273 87.2163C57.5273 89.3909 59.2902 91.1538 61.4648 91.1538ZM70.6523 78.0288V67.5288H81.1523V78.0288H70.6523ZM86.4023 87.2163C86.4023 89.3909 88.1652 91.1538 90.3398 91.1538C92.5145 91.1538 94.2773 89.3909 94.2773 87.2163C94.2773 85.0417 92.5145 83.2788 90.3398 83.2788H86.4023V87.2163Z" fill="#6DD6B0"/>
</g>
<defs>
<clipPath id="clip0_4_2328">
<rect width="116" height="116" fill="white" transform="translate(0 0.65332)"/>
</clipPath>
</defs>
</svg>
