<svg width="116" height="116" viewBox="0 0 116 116" fill="none" xmlns="http://www.w3.org/2000/svg">
<g id="Atom/Complex-Icon/1 - 6" clip-path="url(#clip0_4_2315)">
<path id="Shape" opacity="0.1" d="M92.6942 7.15424V86.137C92.6942 90.0718 89.5552 93.2912 85.7188 93.2912H6.97544C3.13895 93.2912 0 90.0718 0 86.137V7.15424C0 3.21941 3.13895 0 6.97544 0H85.7188C89.5552 0 92.6942 3.21941 92.6942 7.15424Z" fill="#A66DF5"/>
<path id="Shape_2" fill-rule="evenodd" clip-rule="evenodd" d="M14.0049 25.0935C14.0049 18.5116 19.2132 13.1698 25.6306 13.1698H104.374C110.791 13.1698 116 18.5116 116 25.0935V104.076C116 110.658 110.791 116 104.374 116H25.6306C19.2132 116 14.0049 110.658 14.0049 104.076V25.0935ZM111.349 104.077V25.0939C111.349 21.1591 108.211 17.9397 104.374 17.9397H25.6307C21.7942 17.9397 18.6553 21.1591 18.6553 25.0939V104.077C18.6553 108.012 21.7942 111.231 25.6307 111.231H104.374C108.211 111.231 111.349 108.012 111.349 104.077Z" fill="#A66DF5"/>
<path id="Combined Shape" fill-rule="evenodd" clip-rule="evenodd" d="M69.3947 58.5728C69.3947 54.501 66.1233 51.1948 62.0862 51.1948C58.0666 51.1948 54.7952 54.501 54.7778 58.5728C54.7778 62.6447 58.0492 65.9509 62.0862 65.9509C66.1233 65.9509 69.3947 62.6447 69.3947 58.5728ZM41.7439 89.6684H97.7577C98.7321 89.6684 99.5326 88.8679 99.5326 87.8935V73.9379C99.5326 73.4506 99.3586 72.9634 99.0628 72.5806L87.5259 57.6158C86.7603 56.5891 85.2638 56.4499 84.3067 57.3025L63.9824 75.2604C63.2167 75.9216 62.1379 76.0086 61.2852 75.4518L50.7054 68.5436C49.6962 67.8997 48.3737 68.1433 47.6777 69.1178L39.9168 80.0804C39.6558 80.4632 39.5166 80.8983 39.5166 81.3681V87.441C39.5166 88.6765 40.5259 89.6684 41.7439 89.6684Z" fill="#A66DF5"/>
</g>
<defs>
<clipPath id="clip0_4_2315">
<rect width="116" height="116" fill="white"/>
</clipPath>
</defs>
</svg>
